IKResults
version=1
nRows=17
nColumns=40
inDegrees=yes

Units are S.I. units (second, meters, Newtons, ...)
Angles are in degrees.

endheader
time	pelvis_tilt	pelvis_list	pelvis_rotation	pelvis_tx	pelvis_ty	pelvis_tz	hip_flexion_r	hip_adduction_r	hip_rotation_r	knee_angle_r	knee_angle_r_beta	ankle_angle_r	subtalar_angle_r	mtp_angle_r	hip_flexion_l	hip_adduction_l	hip_rotation_l	knee_angle_l	knee_angle_l_beta	ankle_angle_l	subtalar_angle_l	mtp_angle_l	lumbar_extension	lumbar_bending	lumbar_rotation	arm_flex_r	arm_add_r	arm_rot_r	elbow_flex_r	pro_sup_r	wrist_flex_r	wrist_dev_r	arm_flex_l	arm_add_l	arm_rot_l	elbow_flex_l	pro_sup_l	wrist_flex_l	wrist_dev_l
      2.50000000	     16.77073775	      0.32186870	      0.72928465	      0.37672632	      0.94750579	     -1.40478393	    -23.45213854	      3.03962957	    -16.55568046	    -13.32281175	     -0.23252693	     13.00259739	      0.80839249	     -4.60737089	      3.11140267	      2.83114452	     14.51583629	    -19.48950364	     -0.34015601	      1.36521411	     -3.62766540	     -6.95992698	    -24.25135071	     -1.98271618	      4.34594826	      4.55407123	    -14.09804092	      2.13405943	     24.84378756	     89.95437384	      0.00000000	      0.00000000	     -2.16975158	      7.97653242	      9.77084421	     17.91801806	     89.95437384	      0.00000000	      0.00000000
      2.51000000	     16.85962672	      0.50524636	      0.54483476	      0.38339571	      0.94662594	     -1.40511495	    -23.91904523	      2.72575332	    -16.39220409	    -13.53147780	     -0.23616884	     13.32935395	      0.83540037	     -4.75273260	      3.21820706	      2.60190257	     15.92511001	    -18.11131957	     -0.31610216	      0.66466546	     -5.96524066	     -7.64485814	    -24.29510284	     -2.19033531	      4.62294104	      4.45564479	    -14.16967508	      2.15060466	     24.85670224	     89.95437384	      0.00000000	      0.00000000	     -2.41386662	      7.92613465	      9.68440237	     17.81134137	     89.95437384	      0.00000000	      0.00000000
      2.52000000	     16.73623454	      0.66951199	      0.56828683	      0.38969397	      0.94538000	     -1.40581539	    -24.06861777	      2.51650905	    -16.35609869	    -13.86279568	     -0.24195143	     13.68981949	      0.60991856	     -4.80315017	      3.62376858	      2.21534716	     16.35069554	    -16.90354228	     -0.29502247	      0.82135094	     -7.04788194	     -7.83515545	    -24.17170846	     -2.30074042	      4.72625776	      4.41348129	    -14.20870821	      2.09710399	     24.80555191	     89.95437384	      0.00000000	      0.00000000	     -2.59653922	      7.88963613	      9.58894542	     17.65884065	     89.95437384	      0.00000000	      0.00000000
      2.53000000	     16.78295694	      0.90068752	      0.37983758	      0.39629148	      0.94438546	     -1.40643399	    -24.40275518	      2.12612549	    -16.14878772	    -14.24277434	     -0.24858331	     14.03412539	      0.45599504	     -4.87729284	      3.69972134	      1.77899957	     17.17123920	    -15.63926757	     -0.27295671	      0.98583054	     -8.22558402	     -8.07547037	    -24.20095207	     -2.53181466	      4.98193869	      4.31683050	    -14.26389842	      2.02821120	     24.81690604	     89.95437384	      0.00000000	      0.00000000	     -2.81179197	      7.81217276	      9.56308801	     17.60861988	     89.95437384	      0.00000000	      0.00000000
      2.54000000	     16.69802296	      0.89329778	      0.58328817	      0.40266626	      0.94313302	     -1.40735725	    -24.66366292	      2.17815832	    -16.24112458	    -14.42325010	     -0.25173320	     14.19499915	      0.34800903	     -4.87512982	      4.28369467	      1.65760170	     17.67333433	    -15.15947201	     -0.26458270	      1.18393239	     -8.26590574	     -8.04923740	    -24.14352381	     -2.39967205	      4.97373564	      4.22476004	    -14.30333377	      2.00838831	     24.83599716	     89.95437384	      0.00000000	      0.00000000	     -2.98203656	      7.74350728	      9.53143266	     17.56675773	     89.95437384	      0.00000000	      0.00000000
      2.55000000	     16.62729462	      0.91537241	      0.68682470	      0.40928847	      0.94187691	     -1.40820911	    -24.94672849	      2.15079535	    -16.27134255	    -14.62708021	     -0.25529071	     14.42212231	      0.21056357	     -4.88892345	      4.69590884	      1.48271620	     18.15943280	    -14.54943037	     -0.25393546	      1.52256770	     -8.49444536	     -8.06331402	    -24.03510539	     -2.33374623	      5.05601605	      4.11130953	    -14.33125540	      1.98768737	     24.79871820	     89.95437384	      0.00000000	      0.00000000	     -3.14613757	      7.66138701	      9.53119651	     17.48719878	     89.95437384	      0.00000000	      0.00000000
      2.56000000	     17.17370843	      1.60052048	     -0.43622080	      0.41663451	      0.94170122	     -1.40825978	    -25.70823959	      0.83295234	    -15.62988106	    -15.27595050	     -0.26661563	     14.92154687	      0.08997557	     -5.13719629	      3.57173899	      0.53867886	     20.26743617	    -12.64948432	     -0.22077515	      1.07399146	    -10.44889178	     -8.53128943	    -24.54394826	     -3.33355868	      5.95803488	      3.89657757	    -14.38858813	      1.79123489	     24.97808463	     89.95437384	      0.00000000	      0.00000000	     -3.32768885	      7.51854419	      9.81250303	     17.47142700	     89.95437384	      0.00000000	      0.00000000
      2.57000000	     16.99598202	      1.55685788	     -0.27589354	      0.42312154	      0.94035360	     -1.40928778	    -25.84253699	      0.87212541	    -15.65781887	    -15.53927728	     -0.27121155	     15.05481041	      0.01978168	     -5.13567672	      4.11425551	      0.47374039	     20.59561930	    -12.37057972	     -0.21590735	      1.33781962	    -10.38880135	     -8.49089976	    -24.37808611	     -3.17278749	      5.97859675	      3.81217347	    -14.40223958	      1.78928076	     24.93295242	     89.95437384	      0.00000000	      0.00000000	     -3.46151906	      7.43718992	      9.79073501	     17.46345108	     89.95437384	      0.00000000	      0.00000000
      2.58000000	     17.15117624	      1.77820874	     -0.63365426	      0.43013655	      0.93953462	     -1.40992453	    -26.28975434	      0.41050123	    -15.24716787	    -15.94527554	     -0.27829756	     15.26390354	     -0.10859289	     -5.23718555	      3.90595504	      0.08396001	     21.42105543	    -11.69998958	     -0.20420334	      1.88170294	    -10.92957599	     -8.68398594	    -24.50172498	     -3.46520472	      6.33243582	      3.70780322	    -14.37902088	      1.70544687	     24.86512369	     89.95437384	      0.00000000	      0.00000000	     -3.63183501	      7.32006303	      9.99713358	     17.49362308	     89.95437384	      0.00000000	      0.00000000
      2.59000000	     17.27146334	      1.93274971	     -0.97313172	      0.43721813	      0.93873960	     -1.41067709	    -26.75544583	      0.00104132	    -14.92803450	    -16.21426302	     -0.28299228	     15.35075171	     -0.21599149	     -5.43279981	      3.78710348	     -0.17178820	     22.57858105	    -11.29820350	     -0.19719085	      1.73416061	    -11.18436795	     -9.01140223	    -24.61071301	     -3.67440937	      6.66864666	      3.52303495	    -14.39811892	      1.65998515	     24.99142679	     89.95437384	      0.00000000	      0.00000000	     -3.77259550	      7.15337189	     10.38352319	     17.52790433	     89.95437384	      0.00000000	      0.00000000
      2.60000000	     17.17331242	      1.91982553	     -0.95045968	      0.44420941	      0.93758909	     -1.41166231	    -26.99094731	     -0.06646465	    -14.77546840	    -16.50652904	     -0.28809328	     15.42567665	     -0.31284996	     -5.43757419	      4.03934075	     -0.24472918	     22.80986599	    -11.31195842	     -0.19743092	      2.19833167	    -11.01003383	     -9.00668178	    -24.50096838	     -3.60539709	      6.73098839	      3.39308449	    -14.34983241	      1.66869448	     24.94184651	     89.95437384	      0.00000000	      0.00000000	     -3.92740497	      7.07375545	     10.41101732	     17.57916298	     89.95437384	      0.00000000	      0.00000000
      2.61000000	     17.16666397	      1.97335511	     -1.15501956	      0.45127442	      0.93664700	     -1.41249187	    -27.28158900	     -0.30764872	    -14.39665765	    -16.87615165	     -0.29454441	     15.52381852	     -0.46568088	     -5.46667471	      4.12752506	     -0.35647293	     23.16620414	    -11.52076758	     -0.20107533	      2.91322218	    -10.70336990	     -9.03102204	    -24.48560022	     -3.69056753	      6.92747217	      3.32178835	    -14.29782646	      1.67259979	     24.86325456	     89.95437384	      0.00000000	      0.00000000	     -4.06735132	      6.96448647	     10.56402030	     17.65145280	     89.95437384	      0.00000000	      0.00000000
      2.62000000	     17.07474948	      1.94504343	     -1.31271790	      0.45856125	      0.93562267	     -1.41339162	    -27.46627633	     -0.45338996	    -14.05293256	    -17.26439748	     -0.30132058	     15.50931727	     -0.66517340	     -5.46982600	      4.26458663	     -0.37955861	     23.37278320	    -11.81619322	     -0.20623148	      3.36851293	    -10.22879566	     -9.00571589	    -24.35755342	     -3.67021506	      7.11300945	      3.14776823	    -14.25616205	      1.69119743	     24.87572426	     89.95437384	      0.00000000	      0.00000000	     -4.21341628	      6.86043640	     10.68831138	     17.71336033	     89.95437384	      0.00000000	      0.00000000
      2.63000000	     16.97466681	      1.90125424	     -1.50663310	      0.46594570	      0.93464303	     -1.41425727	    -27.63856598	     -0.59695738	    -13.62982876	    -17.67429360	     -0.30847462	     15.43466863	     -0.91847019	     -5.46749679	      4.38002715	     -0.38347022	     23.44679338	    -12.24982014	     -0.21379969	      4.01255443	     -9.59329549	     -8.99440508	    -24.21840512	     -3.65174149	      7.30386505	      3.00330121	    -14.19442710	      1.74259581	     24.84218636	     89.95437384	      0.00000000	      0.00000000	     -4.33569312	      6.75612692	     10.79917439	     17.76972838	     89.95437384	      0.00000000	      0.00000000
      2.64000000	     16.70249187	      1.87745004	     -1.52771632	      0.47353022	      0.93348714	     -1.41540072	    -27.60490015	     -0.71025372	    -13.44261875	    -18.15300834	     -0.31682976	     15.15980319	     -0.94117125	     -5.38279437	      4.59812539	     -0.42334473	     23.13678993	    -12.65789098	     -0.22092187	      3.93831490	     -9.25335145	     -8.83964010	    -23.89157040	     -3.60830077	      7.31633749	      2.73307172	    -14.11259503	      1.75885447	     25.00199033	     89.95437384	      0.00000000	      0.00000000	     -4.57386177	      6.69514450	     10.78027334	     18.00351774	     89.95437384	      0.00000000	      0.00000000
      2.65000000	     16.75246478	      1.77174948	     -1.89856566	      0.48132206	      0.93285347	     -1.41609955	    -27.95503819	     -0.87635443	    -12.87050426	    -18.55545270	     -0.32385374	     15.11975537	     -1.29093992	     -5.38332145	      4.46924314	     -0.30137688	     23.31101350	    -13.47106631	     -0.23511446	      4.99968283	     -8.06229901	     -8.81336123	    -23.85730313	     -3.59125909	      7.63107070	      2.66994447	    -14.04636436	      1.93470623	     24.73529193	     89.95437384	      0.00000000	      0.00000000	     -4.63453811	      6.61160377	     10.80897793	     17.87686418	     89.95437384	      0.00000000	      0.00000000
      2.66000000	     16.44957608	      1.71671367	     -1.95747645	      0.48942040	      0.93175888	     -1.41728235	    -27.92437154	     -0.99687197	    -12.69302365	    -19.02705633	     -0.33208478	     14.84231327	     -1.30863232	     -5.29771652	      4.54322781	     -0.30658906	     22.95284138	    -13.91032752	     -0.24278102	      4.85872550	     -7.73571201	     -8.65759597	    -23.42241462	     -3.52653509	      7.64090293	      2.33983339	    -13.93886316	      1.96472301	     24.86794031	     89.95437384	      0.00000000	      0.00000000	     -4.89049637	      6.55236117	     10.78479694	     18.10114986	     89.95437384	      0.00000000	      0.00000000
